<svg xmlns="http://www.w3.org/2000/svg" width="339" height="320" viewBox="0 0 339 320"><defs><linearGradient id="a" x1="0%" x2="83.49%" y1="50%" y2="50%"><stop offset="0%" stop-color="#10D0AF"/><stop offset="24.26%" stop-color="#16CAC2"/><stop offset="73.22%" stop-color="#25B9F3"/><stop offset="100%" stop-color="#28B5FE"/></linearGradient></defs><path fill="url(#a)" fill-rule="evenodd" d="M235.989011,394.624176 L304.630769,284.90989 L373.272527,394.624176 L235.989011,394.624176 Z M130.213187,256.215385 L208.138462,130.372509 L287.019172,256.215385 L208.138462,381.402198 L130.213187,256.215385 Z M400.56044,87.1428571 C405.905495,87.1428571 410.969231,90.2373626 413.782418,95.0197802 C416.595604,99.8021978 416.314286,105.70989 413.501099,110.492308 L322.353846,256.215385 L413.501099,401.938462 C416.314286,406.43956 416.595604,412.347253 413.21978,416.848352 C410.687912,421.630769 405.624176,424.725275 399.997802,424.725275 L205.043956,424.725275 C204.762637,424.725275 204.2,424.443956 203.918681,424.443956 L203.637363,424.443956 C203.356044,424.162637 203.356044,424.162637 203.074725,424.162637 C202.793407,423.881319 202.512088,423.881319 202.512088,423.881319 L200.824176,423.037363 C200.824176,423.037363 200.542857,423.037363 200.261538,422.756044 L199.98022,422.756044 C199.98022,422.474725 199.698901,422.474725 199.417582,422.193407 C199.136264,422.193407 199.136264,422.193407 198.854945,421.912088 C198.573626,421.912088 198.573626,421.630769 198.292308,421.630769 L198.010989,421.349451 L196.323077,419.661538 C196.323077,419.38022 196.041758,419.38022 196.041758,419.098901 L195.76044,418.817582 C195.76044,418.536264 195.479121,418.536264 195.479121,418.254945 L99.2681319,264.373626 C96.1736264,259.30989 96.1736264,253.120879 99.2681319,248.057143 L195.479121,94.4571429 C198.292308,89.956044 203.074725,87.1428571 208.41978,87.1428571 Z M373.272527,116.118681 L235.989011,116.118681 L304.630769,225.832967 L373.272527,116.118681 Z" transform="rotate(-90 164.852 251.434)"/></svg>