<svg xmlns="http://www.w3.org/2000/svg" viewBox="0 0 650 1866" fill="none">
  <defs>
    <linearGradient id="mesh-bg" x1="325" y1="0" x2="325" y2="1866" gradientUnits="userSpaceOnUse">
      <stop offset="0" stop-color="#f6f6f6"/>
      <stop offset="0.14" stop-color="#808080"/>
      <stop offset="0.32" stop-color="#202020"/>
      <stop offset="0.56" stop-color="#6b6b6b"/>
      <stop offset="0.78" stop-color="#101010"/>
      <stop offset="1" stop-color="#dadada"/>
    </linearGradient>
    <filter id="blur-xl" x="-22%" y="-12%" width="144%" height="124%" color-interpolation-filters="sRGB">
      <feGaussianBlur stdDeviation="54"/>
    </filter>
    <filter id="blur-md" x="-18%" y="-10%" width="136%" height="120%" color-interpolation-filters="sRGB">
      <feGaussianBlur stdDeviation="28"/>
    </filter>
    <filter id="grain" x="-20%" y="-20%" width="140%" height="140%" color-interpolation-filters="sRGB">
      <feTurbulence type="fractalNoise" baseFrequency="0.85" numOctaves="2" seed="9" result="noise"/>
      <feColorMatrix in="noise" type="saturate" values="0" result="mono"/>
      <feComponentTransfer in="mono" result="grainMask">
        <feFuncA type="table" tableValues="0 0.09"/>
      </feComponentTransfer>
    </filter>
  </defs>

  <rect width="650" height="1866" fill="url(#mesh-bg)"/>

  <g filter="url(#blur-xl)">
    <path d="M-118 54C16 -38 160 14 212 250C268 506 108 632 148 890C184 1128 336 1228 328 1512C322 1728 178 1828 -44 1990L-118 54Z" fill="#f5f5f5" opacity="0.94"/>
    <path d="M204 -102C338 48 432 260 404 528C386 696 290 786 276 964C258 1188 392 1328 404 1574C414 1754 346 1916 236 1988H176C234 1842 236 1686 198 1534C162 1382 78 1252 96 1000C118 686 254 522 280 254C292 144 272 18 204 -102Z" fill="#959595" opacity="0.82"/>
    <path d="M506 -96C652 124 696 350 626 648C582 834 486 934 494 1188C500 1426 602 1548 648 1988H434C456 1792 398 1644 338 1422C270 1172 300 986 376 760C438 572 510 454 518 246C522 126 516 12 506 -96Z" fill="#050505" opacity="0.98"/>
    <path d="M-58 1296C54 1200 152 1228 198 1388C238 1526 202 1668 110 1756C18 1844 -74 1792 -116 1658C-154 1532 -134 1362 -58 1296Z" fill="#f0f0f0" opacity="0.78"/>
  </g>

  <g filter="url(#blur-md)">
    <path d="M82 196C158 132 226 166 252 312C278 446 222 554 146 616C70 678 -8 648 -38 530C-68 410 -8 274 82 196Z" fill="#e5e5e5" opacity="0.76"/>
    <path d="M258 760C316 678 386 684 424 806C460 922 438 1058 372 1140C306 1222 232 1210 192 1090C152 964 182 836 258 760Z" fill="#a5a5a5" opacity="0.72"/>
    <path d="M292 1228C354 1146 440 1148 490 1288C536 1418 524 1590 444 1682C366 1772 282 1748 236 1614C188 1478 202 1326 292 1228Z" fill="#5a5a5a" opacity="0.74"/>
    <path d="M474 50C552 12 620 76 642 240C664 404 624 576 550 642C476 710 404 656 378 500C354 350 386 94 474 50Z" fill="#121212" opacity="0.82"/>
  </g>

  <rect width="650" height="1866" fill="#ffffff" opacity="0.14" filter="url(#grain)"/>
</svg>
