<svg xmlns="http://www.w3.org/2000/svg" width="76" height="48" viewBox="0 0 76 48"><g fill="none"><path fill="#FFF" d="M28,14 C28,6.268 34.268,0 42,0 L62,0 C69.732,0 76,6.268 76,14 L76,34 C76,41.732 69.732,48 62,48 L42,48 C34.268,48 28,41.732 28,34 L28,14 Z"/><polygon fill="#202020" points="46.816 33 53.834 14 55.894 14 48.877 33 46.817 33"/><path fill="#FFF" d="M0,13 C0,5.82 5.82,0 13,0 C20.18,0 26,5.82 26,13 L26,35 C26,42.18 20.18,48 13,48 C5.82,48 0,42.18 0,35 L0,13 Z"/><polygon fill="#202020" points="11.75 29.999 11.75 27.499 14.25 27.499 14.25 29.999"/></g></svg>