<svg xmlns="http://www.w3.org/2000/svg" width="98" height="95" viewBox="0 0 98 95"><path fill="#FFF" d="M41.4395004,69.3847996 C28.8066004,67.8534996 19.9062004,58.7616996 19.9062004,46.9901996 C19.9062004,42.2050996 21.6289004,37.0370996 24.5,33.5917996 C23.2559004,30.4335996 23.4473004,23.7343996 24.8828004,20.9589996 C28.7109004,20.4804996 33.8789004,22.4901996 36.9414004,25.2655996 C40.5781004,24.1171996 44.4062004,23.5429996 49.0957004,23.5429996 C53.7852004,23.5429996 57.6133004,24.1171996 61.0586004,25.1698996 C64.0254004,22.4901996 69.2891004,20.4804996 73.1172004,20.9589996 C74.4570004,23.5429996 74.6484004,30.2421996 73.4043004,33.4960996 C76.4668004,37.1327996 78.0937004,42.0136996 78.0937004,46.9901996 C78.0937004,58.7616996 69.1934004,67.6620996 56.3691004,69.2890996 C59.6230004,71.3944996 61.8242004,75.9882996 61.8242004,81.2519996 L61.8242004,91.2050996 C61.8242004,94.0761996 64.2168004,95.7030996 67.0879004,94.5546996 C84.4102004,87.9511996 98,70.6288996 98,49.1913996 C98,22.1073996 75.9883004,-1.90204594e-15 48.9043004,-1.90204594e-15 C21.8203004,-1.90204594e-15 2.99955749e-15,22.1073996 2.99955749e-15,49.1913996 C2.99955749e-15,70.4374996 13.4941004,88.0468996 31.6777004,94.6503996 C34.2617004,95.6073996 36.7500004,93.8847996 36.7500004,91.3007996 L36.7500004,83.6444996 C35.4102004,84.2187996 33.6875004,84.6015996 32.1562004,84.6015996 C25.8398004,84.6015996 22.1074004,81.1562996 19.4277004,74.7440996 C18.3750004,72.1601996 17.2266004,70.6288996 15.0254004,70.3417996 C13.8770004,70.2460996 13.4941004,69.7675996 13.4941004,69.1933996 C13.4941004,68.0448996 15.4082004,67.1835996 17.3223004,67.1835996 C20.0977004,67.1835996 22.4902004,68.9062996 24.9785004,72.4472996 C26.8926004,75.2226996 28.9023004,76.4667996 31.2949004,76.4667996 C33.6875004,76.4667996 35.2187004,75.6054996 37.4199004,73.4042996 C39.0469004,71.7772996 40.2910004,70.3417996 41.4395004,69.3847996 Z"/></svg>