<svg xmlns="http://www.w3.org/2000/svg" width="21" height="21" viewBox="0 0 21 21"><path fill="#FFF" d="M18.5899838,0.0410824825 L10.332746,2.27681089 C10.1228803,2.33300066 9.66723424,2.33237633 9.4580126,2.27368924 L1.41347086,0.0454527977 C0.695473103,-0.152147884 0,0.365422306 0,1.10431775 L0,16.2855442 C0,16.911748 0.474989138,17.5105007 1.07960239,17.6787578 L9.12445643,19.9073064 C9.33965081,19.9669105 9.61666112,20 9.90397733,20 C10.1010193,20 10.3920831,19.9847039 10.6597439,19.9116572 L18.9166303,17.6759288 C19.522805,17.512042 20,16.9145574 20,16.2858564 L20,1.10431775 C20.0003121,0.366046637 19.3048195,-0.153396545 18.5899642,0.0410824825 L18.5899838,0.0410824825 Z M9.37554582,18.6811013 L1.39377643,16.4753213 C1.33350248,16.458796 1.24918142,16.3485821 1.24918142,16.2858369 L1.24918142,1.30127459 L9.12445643,3.47739892 C9.20065769,3.49862616 9.28622795,3.51517093 9.37554582,3.52921837 L9.37554582,18.6811013 L9.37554582,18.6811013 Z M18.7511307,16.2858564 C18.7511307,16.347353 18.6499259,16.4547183 18.5899642,16.4712631 L10.6247663,18.6277015 L10.6247663,3.48924169 C10.6363214,3.48643221 10.6481888,3.48487138 10.6597439,3.48174972 L18.7508184,1.29409478 L18.7508184,16.2858369 L18.7511307,16.2858369 L18.7511307,16.2858564 Z M12.5375857,7.157497 C12.5937997,7.157497 12.6509897,7.15033671 12.7072038,7.13439677 L17.0781383,5.90477736 C17.4104453,5.81081558 17.6040714,5.46647766 17.5106741,5.13464587 C17.4172769,4.80281408 17.0703308,4.61020804 16.7402295,4.70229683 L12.3692754,5.93193574 C12.0369879,6.02589752 11.8433618,6.37021593 11.9367396,6.70204772 C12.01419,6.97768975 12.2649476,7.157497 12.5375857,7.157497 L12.5375857,7.157497 Z M12.5376247,10.903501 C12.5938388,10.903501 12.6510287,10.8963212 12.7072428,10.8803813 L17.0781774,9.65076185 C17.4104843,9.55680007 17.6041105,9.21246215 17.5107132,8.88063036 C17.4173549,8.54879856 17.0703698,8.35619253 16.7402685,8.44828131 L12.3693144,9.67792023 C12.037027,9.77188201 11.8434008,10.1162004 11.9367786,10.4477396 C12.0142291,10.7233621 12.2649866,10.903501 12.5376247,10.903501 Z M12.5376638,14.6494855 C12.5938778,14.6494855 12.6510678,14.6423057 12.7072818,14.6263657 L17.0782164,13.3967463 C17.4105234,13.3027846 17.6041495,12.9584466 17.5107522,12.6266148 C17.4173549,12.2947831 17.0704089,12.102177 16.7403075,12.1942658 L12.3693535,13.4239047 C12.037066,13.5178665 11.8434399,13.8621849 11.9368176,14.1940167 C12.0142681,14.4693661 12.2650257,14.6494855 12.5376638,14.6494855 L12.5376638,14.6494855 Z M7.70922888,5.93193574 L3.33831384,4.70229683 C3.00821249,4.61020804 2.66124693,4.80281408 2.56784964,5.13464587 C2.47445235,5.46647766 2.66778571,5.81079607 3.00038546,5.90477736 L7.37135906,7.13439677 C7.42654217,7.14987857 7.48360326,7.15765239 7.54091857,7.15749929 C7.81355668,7.15749929 8.06431425,6.97770926 8.1417647,6.70206723 C8.23514247,6.3705281 8.04182863,6.02589752 7.70922888,5.93193574 L7.70922888,5.93193574 Z M7.70926792,9.67790072 L3.33835287,8.4482618 C3.00825153,8.35617302 2.66126645,8.54877905 2.56788868,8.88061085 C2.47451091,9.21244264 2.66782475,9.55676105 3.0004245,9.65074234 L7.37137858,10.8803617 C7.42656798,10.8958453 7.48363576,10.9036192 7.54095761,10.9034643 C7.81359571,10.9034643 8.06435328,10.7236742 8.14180374,10.4480322 C8.23518151,10.1164931 8.04186767,9.7718625 7.70926792,9.67790072 L7.70926792,9.67790072 Z M7.70930695,13.4238657 L3.33839191,12.1942268 C3.00829056,12.102138 2.66130548,12.294744 2.56792771,12.6265758 C2.47454994,12.9584076 2.66786379,13.302726 3.00046354,13.3967073 L7.37141762,14.6263267 C7.42660702,14.6418103 7.4836748,14.6495841 7.54099665,14.6494293 C7.81363475,14.6494293 8.06439232,14.4696392 8.14184278,14.1939972 C8.23522055,13.8621654 8.0419067,13.5178275 7.70930695,13.4238657 Z" transform="translate(.738 .567)"/></svg>