<svg xmlns="http://www.w3.org/2000/svg" width="912" height="166" viewBox="0 0 912 166"><g fill="#2E5CFF" fill-rule="evenodd" transform="translate(.874 .86)"><path d="M395.801977,130.322738 L395.801977,27.374338 L378.808977,27.374338 L378.808977,130.322738 L395.801977,130.322738 Z M228.987977,94.267538 L228.987977,130.325738 L211.313977,130.325738 L211.313977,32.740438 L249.459977,32.740438 C256.966977,32.740438 263.460977,34.069738 268.942977,36.728238 C274.424977,39.386738 278.599977,43.072938 281.465977,47.787238 C284.331977,52.501038 285.764977,57.874338 285.764977,63.906338 C285.764977,70.206438 284.342977,75.635238 281.499977,80.192738 C278.655977,84.750138 274.516977,88.235438 269.079977,90.648538 C263.642977,93.061538 257.103977,94.267538 249.459977,94.267538 L228.987977,94.267538 Z M228.986977,80.327038 L249.459977,80.327038 C255.783977,80.327038 260.457977,78.874438 263.483977,75.970438 C266.508977,73.065838 268.021977,69.089038 268.021977,64.040038 C268.021977,60.912638 267.361977,58.041638 266.042977,55.427638 C264.723977,52.813738 262.675977,50.713838 259.900977,49.127538 C257.125977,47.541238 253.645977,46.748038 249.459977,46.748038 L228.986977,46.748038 L228.986977,80.327038 Z M329.624977,131.669738 C336.676977,131.669738 342.795977,130.083738 347.981977,126.911738 C353.168977,123.738738 357.138977,119.359738 359.890977,113.774738 C362.642977,108.189738 364.018977,101.866738 364.018977,94.807038 L364.018977,93.399638 C364.018977,86.339938 362.642977,80.017238 359.890977,74.432138 C357.138977,68.847038 353.157977,64.456938 347.948977,61.261738 C342.738977,58.067038 336.585977,56.469738 329.488977,56.469738 C322.482977,56.469738 316.385977,58.067038 311.199977,61.261738 C306.013977,64.456938 302.044977,68.847038 299.291977,74.432138 C296.539977,80.017238 295.162977,86.339938 295.162977,93.399638 L295.162977,94.807038 C295.162977,101.866738 296.539977,108.189738 299.291977,113.774738 C302.044977,119.359738 306.024977,123.738738 311.233977,126.911738 C316.442977,130.083738 322.573977,131.669738 329.624977,131.669738 Z M316.522977,111.698738 C319.434977,116.077738 323.801977,118.266738 329.625977,118.266738 C333.491977,118.266738 336.733977,117.227738 339.349977,115.149738 C341.965977,113.072738 343.899977,110.268738 345.150977,106.738738 C346.401977,103.208738 347.026977,99.232738 347.026977,94.808838 L347.026977,93.401438 C347.026977,89.022238 346.401977,85.057038 345.150977,81.504638 C343.899977,77.952238 341.954977,75.126338 339.315977,73.025938 C336.676977,70.926038 333.401977,69.875838 329.488977,69.875838 C325.621977,69.875838 322.391977,70.926038 319.798977,73.025938 C317.205977,75.126338 315.282977,77.952238 314.031977,81.504638 C312.780977,85.057038 312.154977,89.022238 312.154977,93.401438 L312.154977,94.808838 C312.154977,101.689738 313.611977,107.319738 316.522977,111.698738 Z M435.192977,154.209738 C431.711977,157.806738 426.741977,159.604738 420.280977,159.604738 C418.051977,159.604738 415.345977,159.202738 412.160977,158.398738 L412.160977,145.596738 L415.299977,145.731738 C419.348977,145.731738 422.430977,145.027738 424.546977,143.619738 C426.661977,142.212738 428.333977,139.743738 429.562977,136.213738 L431.882977,130.047738 L405.950977,57.796738 L424.307977,57.796738 L439.661977,106.455738 L454.538977,57.796738 L472.622977,57.796738 L443.210977,141.307738 C441.345977,146.311738 438.672977,150.612738 435.192977,154.209738 Z M498.877977,130.329738 L498.877977,77.917438 C501.607977,72.689538 506.224977,70.075638 512.730977,70.075638 C517.007977,70.075638 520.246977,71.103238 522.454977,73.158538 C524.662977,75.213738 525.766977,78.677038 525.766977,83.547138 L525.766977,130.329738 L542.757977,130.329738 L542.757977,82.005938 L542.688977,80.464238 C543.687977,77.291638 545.384977,74.767438 547.772977,72.890438 C550.161977,71.014038 553.130977,70.075638 556.680977,70.075638 C560.999977,70.075638 564.241977,71.047638 566.403977,72.991138 C568.565977,74.934738 569.646977,78.386438 569.646977,83.346238 L569.646977,130.329738 L586.637977,130.329738 L586.637977,83.413438 C586.637977,74.074438 584.568977,67.249138 580.425977,62.937738 C576.287977,58.625738 570.302977,56.469738 562.481977,56.469738 C557.517977,56.469738 553.130977,57.441838 549.306977,59.385338 C545.489977,61.328838 542.322977,64.043538 539.823977,67.528838 C537.958977,63.775538 535.296977,60.993638 531.839977,59.184438 C528.381977,57.374638 524.331977,56.469738 519.691977,56.469738 C515.141977,56.469738 511.081977,57.240338 507.510977,58.782038 C503.938977,60.323838 500.902977,62.546438 498.400977,65.450938 L497.853977,57.810038 L481.885977,57.810038 L481.885977,130.329738 L498.877977,130.329738 Z M637.116977,129.458738 C633.885977,130.932738 630.224977,131.669738 626.127977,131.669738 C621.304977,131.669738 616.987977,130.731738 613.163977,128.854738 C609.340977,126.978738 606.359977,124.386738 604.226977,121.080738 C602.088977,117.773738 601.019977,114.064738 601.019977,109.954738 C601.019977,102.224738 603.941977,96.304238 609.787977,92.193138 C615.633977,88.082638 623.925977,86.027338 634.658977,86.027338 L644.896977,86.027338 L644.896977,81.335538 C644.896977,77.493038 643.827977,74.487738 641.689977,72.320738 C639.550977,70.153738 636.389977,69.069938 632.200977,69.069938 C629.701977,69.069938 627.493977,69.494938 625.581977,70.343638 C623.669977,71.192438 622.193977,72.354338 621.147977,73.828938 C620.101977,75.303538 619.578977,76.956438 619.578977,78.788738 L602.587977,78.788738 C602.587977,74.901138 603.848977,71.248538 606.370977,67.830438 C608.898977,64.412338 612.489977,61.664038 617.155977,59.586238 C621.816977,57.508438 627.150977,56.469738 633.158977,56.469738 C638.801977,56.469738 643.781977,57.408238 648.104977,59.284638 C652.427977,61.161538 655.803977,63.976438 658.238977,67.729738 C660.673977,71.483038 661.887977,76.063038 661.887977,81.469238 L661.887977,113.439738 C661.887977,120.052738 662.823977,125.302738 664.688977,129.189738 L664.688977,130.329738 L647.354977,130.329738 C646.622977,128.765738 645.989977,126.508738 645.443977,123.560738 C643.118977,126.017738 640.347977,127.983738 637.116977,129.458738 Z M629.405977,118.328738 C625.814977,118.328738 623.013977,117.400738 621.014977,115.547738 C619.009977,113.692738 618.010977,111.290738 618.010977,108.341738 C618.010977,104.543738 619.532977,101.594738 622.583977,99.494738 C625.628977,97.394938 630.114977,96.344738 636.023977,96.344738 L644.896977,96.344738 L644.896977,109.883738 C643.624977,112.206738 641.607977,114.195738 638.859977,115.848738 C636.105977,117.501738 632.955977,118.328738 629.405977,118.328738 Z M695.922977,80.933138 L695.922977,130.329738 L678.931977,130.329738 L678.931977,57.810038 L695.102977,57.810038 L695.579977,65.987038 C697.444977,62.948738 699.769977,60.602838 702.540977,58.949438 C705.318977,57.296538 708.526977,56.469738 712.163977,56.469738 C713.122977,56.469738 714.197977,56.558938 715.406977,56.737838 C716.609977,56.916738 717.509977,57.117638 718.102977,57.341038 L717.962977,73.091338 C715.690977,72.734138 713.436977,72.555238 711.210977,72.555238 C703.610977,72.555238 698.513977,75.348038 695.922977,80.933138 Z M745.308977,130.322738 L745.308977,106.796738 L752.752977,99.357738 L774.247977,130.322738 L793.899977,130.322738 L763.671977,87.963938 L791.034977,57.803038 L770.563977,57.803038 L750.364977,80.255838 L745.308977,86.422138 L745.308977,27.374338 L728.387977,27.374338 L728.387977,130.322738 L745.308977,130.322738 Z M851.479977,127.782738 C846.702977,130.373738 840.921977,131.669738 834.145977,131.669738 C826.957977,131.669738 820.675977,130.139738 815.306977,127.078738 C809.943977,124.018738 805.823977,119.828738 802.958977,114.511738 C800.093977,109.194738 798.658977,103.229738 798.658977,96.616838 L798.658977,93.868638 C798.658977,86.407138 800.111977,79.849938 803.028977,74.197738 C805.939977,68.545438 809.943977,64.177238 815.033977,61.094438 C820.129977,58.011538 825.865977,56.469738 832.233977,56.469738 C839.195977,56.469738 845.041977,57.966938 849.771977,60.960638 C854.501977,63.953838 858.039977,68.143038 860.381977,73.527338 C862.723977,78.911538 863.897977,85.156038 863.897977,92.260338 L863.897977,99.297738 L815.789977,99.297738 C816.102977,103.005738 817.084977,106.290738 818.723977,109.149738 C820.356977,112.009738 822.576977,114.243738 825.377977,115.852738 C828.172977,117.461738 831.437977,118.265738 835.168977,118.265738 C842.809977,118.265738 848.951977,115.316738 853.594977,109.418738 L862.671977,118.064738 C859.986977,121.951738 856.256977,125.191738 851.479977,127.782738 Z M847.109977,87.235038 L816.126977,87.235038 C816.898977,81.739038 818.653977,77.472238 821.384977,74.433938 C824.110977,71.395038 827.707977,69.875838 832.164977,69.875838 C837.167977,69.875838 840.857977,71.384038 843.222977,74.400338 C845.587977,77.416038 846.883977,81.270138 847.109977,85.961938 L847.109977,87.235038 Z M911.099977,130.060738 C907.827977,131.132738 904.143977,131.668738 900.046977,131.668738 C894.038977,131.668738 889.308977,130.037738 885.850977,126.775738 C882.393977,123.513738 880.667977,118.308738 880.667977,111.159738 L880.667977,70.141038 L868.656977,70.141038 L868.656977,57.808838 L880.667977,57.808838 L880.667977,40.115038 L897.658977,40.115038 L897.658977,57.808838 L910.622977,57.808838 L910.622977,70.141038 L897.658977,70.141038 L897.658977,110.019738 C897.658977,113.058738 898.291977,115.125738 899.570977,116.219738 C900.842977,117.314738 902.754977,117.861738 905.299977,117.861738 C907.118977,117.861738 909.053977,117.638738 911.099977,117.191738 L911.099977,130.060738 Z"/><path fill-rule="nonzero" d="M136.392977,150.634738 C136.392977,157.899738 136.392977,161.531738 134.016977,163.331738 C131.641977,165.132738 128.144977,164.151738 121.149977,162.188738 L8.757897,130.649738 C4.543907,129.467738 2.436907,128.876738 1.218457,127.268738 C-2.84217094e-14,125.661738 -2.84217094e-14,123.472738 -2.84217094e-14,119.096738 L-2.84217094e-14,45.183138 C-2.84217094e-14,40.806438 -2.84217094e-14,38.618038 1.218457,37.010638 C2.436907,35.403138 4.543897,34.811938 8.757887,33.629438 L121.149977,2.09069803 C128.144977,0.128078029 131.641977,-0.853231971 134.016977,0.947448029 C136.392977,2.74812803 136.392977,6.38022803 136.392977,13.644438 L136.392977,150.634738 Z M28.030277,120.367738 L121.091977,146.484738 L121.091977,94.253038 L28.030277,120.367738 Z M15.299777,108.250738 L108.342977,82.139738 L15.299777,56.028438 L15.299777,108.250738 Z M28.029277,43.912238 L121.091977,70.027438 L121.091977,17.795038 L28.029277,43.912238 Z"/></g></svg>